G04 DipTrace 3.1.0.1*
G04 Top.gbr*
%MOIN*%
G04 #@! TF.FileFunction,Copper,L1,Top*
G04 #@! TF.Part,Single*
G04 #@! TA.AperFunction,Conductor*
%ADD13C,0.012992*%
%ADD14R,0.059055X0.051181*%
%ADD15R,0.070866X0.015748*%
G04 #@! TA.AperFunction,ComponentPad*
%ADD16R,0.066929X0.066929*%
%ADD17C,0.066929*%
G04 #@! TA.AperFunction,ViaPad*
%ADD18C,0.04*%
%FSLAX26Y26*%
G04*
G70*
G90*
G75*
G01*
G04 Top*
%LPD*%
X1063357Y1151005D2*
D13*
X1008094D1*
X970594Y1188505D1*
X882107D1*
X1057107Y857255D2*
Y956958D1*
X982109Y1031956D1*
Y1151005D1*
X1008094D1*
X1279770Y929991D2*
X1354428D1*
X1355806Y931369D1*
X1374180D1*
X1123361Y901428D2*
Y782451D1*
X1057107D1*
X1063357Y1017617D2*
Y1076201D1*
X1057107Y782451D2*
X912373D1*
X887373Y807451D1*
X838357D1*
X882107Y1113701D2*
Y1018598D1*
X838357Y974848D1*
Y882255D1*
X588357Y1369755D2*
X1252617D1*
X1278601Y1343771D1*
Y1085700D1*
X1304979Y1059322D1*
X1374180D1*
X588357Y1269755D2*
X1118141D1*
X1144125Y1243771D1*
Y1059715D1*
X1170109Y1033731D1*
X1374180D1*
X1429101Y1169755D2*
Y1008140D1*
X1374180D1*
X1919607Y1307255D2*
X1567089D1*
X1541105Y1281271D1*
Y1059322D1*
X1602526D1*
X1919607Y1207255D2*
X1731912D1*
X1705926Y1181269D1*
Y1059715D1*
X1679942Y1033731D1*
X1602526D1*
X1534101Y1006763D2*
X1582774D1*
X1584152Y1008140D1*
X1602526D1*
X1919607Y1007255D2*
X1787550D1*
X1762845Y982550D1*
X1602526D1*
X1840668Y955582D2*
X1622278D1*
X1620900Y956959D1*
X1602526D1*
X1495597Y931369D2*
X1602526D1*
X1919607Y707255D2*
X1561069D1*
X1535085Y733239D1*
Y905778D1*
X1602526D1*
X1853152Y760263D2*
X1733227Y880188D1*
X1602534D1*
D18*
X1279770Y929991D3*
X1063357Y1017617D3*
X1123361Y901428D3*
X1429101Y1169755D3*
X1534101Y1006763D3*
X1840668Y955582D3*
X1495597Y931369D3*
X1853152Y760263D3*
D14*
X1057107Y857255D3*
Y782451D3*
X1063357Y1151005D3*
Y1076201D3*
X838357Y882255D3*
Y807451D3*
X882107Y1113701D3*
Y1188505D3*
D15*
X1374180Y1059322D3*
Y1033731D3*
Y1008140D3*
Y982550D3*
Y956959D3*
Y931369D3*
Y905778D3*
Y880188D3*
X1602534D3*
X1602526Y905778D3*
Y931369D3*
Y956959D3*
Y982550D3*
Y1008140D3*
Y1033731D3*
Y1059322D3*
D16*
X588357Y1369755D3*
D17*
Y1269755D3*
Y1169755D3*
Y1069755D3*
Y969755D3*
Y869755D3*
Y769755D3*
Y669755D3*
D16*
X1919607Y607255D3*
D17*
Y707255D3*
Y807255D3*
Y907255D3*
Y1007255D3*
Y1107255D3*
Y1207255D3*
Y1307255D3*
M02*
