G04 DipTrace 3.1.0.1*
G04 TopAssy.gbr*
%MOIN*%
G04 #@! TF.FileFunction,Drawing,Top*
G04 #@! TF.Part,Single*
%ADD10C,0.009843*%
%ADD33C,0.003088*%
%FSLAX26Y26*%
G04*
G70*
G90*
G75*
G01*
G04 TopAssy*
%LPD*%
X648196Y1438652D2*
D10*
Y600857D1*
X1859768Y538357D2*
Y1376152D1*
X686495Y1119165D2*
D33*
X666399D1*
Y1110543D1*
X667371Y1107669D1*
X668322Y1106718D1*
X670223Y1105768D1*
X673097D1*
X675021Y1106718D1*
X675971Y1107669D1*
X676922Y1110543D1*
X677895Y1107669D1*
X678845Y1106718D1*
X680747Y1105768D1*
X682670D1*
X684571Y1106718D1*
X685544Y1107669D1*
X686495Y1110543D1*
Y1119165D1*
X676922D2*
Y1110543D1*
X686495Y1093844D2*
X685544Y1095767D1*
X683621Y1097669D1*
X681719Y1098641D1*
X678845Y1099592D1*
X674048D1*
X671196Y1098641D1*
X669273Y1097669D1*
X667371Y1095767D1*
X666399Y1093844D1*
Y1090019D1*
X667371Y1088118D1*
X669273Y1086195D1*
X671196Y1085244D1*
X674048Y1084293D1*
X678845D1*
X681719Y1085244D1*
X683621Y1086195D1*
X685544Y1088118D1*
X686495Y1090019D1*
Y1093844D1*
X666399Y1062797D2*
X686495Y1070468D1*
X666399Y1078118D1*
X673097Y1075244D2*
Y1065671D1*
X676922Y1056621D2*
Y1048021D1*
X677895Y1045147D1*
X678845Y1044175D1*
X680747Y1043224D1*
X682670D1*
X684571Y1044175D1*
X685544Y1045147D1*
X686495Y1048021D1*
Y1056621D1*
X666399D1*
X676922Y1049923D2*
X666399Y1043224D1*
X686495Y1037048D2*
X666399D1*
Y1030350D1*
X667371Y1027476D1*
X669273Y1025552D1*
X671196Y1024602D1*
X674048Y1023651D1*
X678845D1*
X681719Y1024602D1*
X683621Y1025552D1*
X685544Y1027476D1*
X686495Y1030350D1*
Y1037048D1*
Y985610D2*
Y998035D1*
X666399D1*
Y985610D1*
X676922Y998035D2*
Y990385D1*
X686495Y979434D2*
X666399Y979435D1*
Y972736D1*
X667371Y969862D1*
X669273Y967938D1*
X671196Y966988D1*
X674048Y966037D1*
X678845D1*
X681719Y966988D1*
X683621Y967938D1*
X685544Y969862D1*
X686495Y972736D1*
Y979434D1*
X681719Y945513D2*
X683621Y946464D1*
X685544Y948388D1*
X686495Y950289D1*
Y954113D1*
X685544Y956037D1*
X683621Y957938D1*
X681719Y958911D1*
X678845Y959861D1*
X674048D1*
X671196Y958911D1*
X669273Y957938D1*
X667371Y956037D1*
X666399Y954113D1*
Y950289D1*
X667371Y948388D1*
X669273Y946464D1*
X671196Y945513D1*
X674048D1*
Y950289D1*
X686495Y926913D2*
Y939338D1*
X666399D1*
Y926913D1*
X676922Y939338D2*
Y931688D1*
X1821469Y857844D2*
X1841565D1*
Y866466D1*
X1840592Y869340D1*
X1839642Y870291D1*
X1837741Y871242D1*
X1834867D1*
X1832943Y870291D1*
X1831993Y869340D1*
X1831042Y866466D1*
X1830069Y869340D1*
X1829119Y870291D1*
X1827217Y871242D1*
X1825294D1*
X1823393Y870291D1*
X1822420Y869340D1*
X1821469Y866466D1*
Y857844D1*
X1831042D2*
Y866466D1*
X1821469Y883165D2*
X1822420Y881242D1*
X1824343Y879341D1*
X1826245Y878368D1*
X1829119Y877417D1*
X1833916D1*
X1836768Y878368D1*
X1838691Y879341D1*
X1840592Y881242D1*
X1841565Y883165D1*
Y886990D1*
X1840592Y888891D1*
X1838691Y890815D1*
X1836768Y891765D1*
X1833916Y892716D1*
X1829119D1*
X1826245Y891765D1*
X1824343Y890815D1*
X1822420Y888891D1*
X1821469Y886990D1*
Y883165D1*
X1841565Y914212D2*
X1821469Y906541D1*
X1841565Y898892D1*
X1834867Y901766D2*
Y911338D1*
X1831042Y920388D2*
Y928988D1*
X1830069Y931862D1*
X1829119Y932835D1*
X1827217Y933785D1*
X1825294D1*
X1823393Y932835D1*
X1822420Y931862D1*
X1821469Y928988D1*
Y920388D1*
X1841565D1*
X1831042Y927087D2*
X1841565Y933785D1*
X1821469Y939961D2*
X1841565D1*
Y946660D1*
X1840592Y949534D1*
X1838691Y951457D1*
X1836768Y952408D1*
X1833916Y953358D1*
X1829119D1*
X1826244Y952408D1*
X1824343Y951457D1*
X1822420Y949534D1*
X1821469Y946660D1*
Y939961D1*
Y991399D2*
Y978974D1*
X1841565D1*
Y991399D1*
X1831042Y978974D2*
Y986624D1*
X1821469Y997575D2*
X1841565D1*
Y1004273D1*
X1840592Y1007147D1*
X1838691Y1009071D1*
X1836768Y1010021D1*
X1833916Y1010972D1*
X1829118D1*
X1826244Y1010021D1*
X1824343Y1009071D1*
X1822420Y1007147D1*
X1821469Y1004273D1*
Y997575D1*
X1826244Y1031496D2*
X1824343Y1030545D1*
X1822420Y1028622D1*
X1821469Y1026720D1*
Y1022896D1*
X1822420Y1020972D1*
X1824343Y1019071D1*
X1826244Y1018098D1*
X1829118Y1017148D1*
X1833916D1*
X1836768Y1018098D1*
X1838691Y1019071D1*
X1840592Y1020972D1*
X1841565Y1022896D1*
Y1026720D1*
X1840592Y1028622D1*
X1838691Y1030545D1*
X1836768Y1031496D1*
X1833916D1*
Y1026720D1*
X1821469Y1050096D2*
Y1037671D1*
X1841565D1*
Y1050096D1*
X1831042Y1037671D2*
Y1045321D1*
M02*
