G04 DipTrace 3.1.0.1*
G04 TopSilk.gbr*
%MOIN*%
G04 #@! TF.FileFunction,Legend,Top*
G04 #@! TF.Part,Single*
%ADD10C,0.009843*%
%ADD32C,0.00772*%
%FSLAX26Y26*%
G04*
G70*
G90*
G75*
G01*
G04 TopSilk*
%LPD*%
X1031536Y898614D2*
D10*
X1082678D1*
X1037786Y1192364D2*
X1088928D1*
X812786Y923614D2*
X863928D1*
X1425371Y1076054D2*
Y863455D1*
X1551343Y1076054D2*
Y863455D1*
X1425371D2*
X1551343D1*
X1425371Y1076054D2*
X1468668D1*
X1508046D2*
X1551343D1*
X1468668D2*
G03X1508046Y1076054I19689J23D01*
G01*
X638359Y1419718D2*
X538357D1*
Y619791D1*
X638359D1*
Y1419718D1*
X1869605Y557291D2*
X1969607D1*
Y1357218D1*
X1869605D1*
Y557291D1*
X966295Y831956D2*
D32*
X961541Y829580D1*
X956733Y824771D1*
X954356Y820018D1*
Y810456D1*
X956733Y805648D1*
X961541Y800895D1*
X966295Y798463D1*
X973480Y796086D1*
X985473D1*
X992603Y798463D1*
X997411Y800895D1*
X1002165Y805648D1*
X1004596Y810456D1*
Y820018D1*
X1002165Y824771D1*
X997411Y829580D1*
X992603Y831956D1*
X963973Y847395D2*
X961541Y852204D1*
X954412Y859389D1*
X1004596D1*
X972545Y1114956D2*
X967791Y1112580D1*
X962983Y1107771D1*
X960606Y1103018D1*
Y1093456D1*
X962983Y1088648D1*
X967791Y1083895D1*
X972545Y1081463D1*
X979730Y1079086D1*
X991723D1*
X998853Y1081463D1*
X1003661Y1083895D1*
X1008415Y1088648D1*
X1010846Y1093456D1*
Y1103018D1*
X1008415Y1107771D1*
X1003661Y1112580D1*
X998853Y1114956D1*
X972600Y1132827D2*
X970223D1*
X965415Y1135204D1*
X963038Y1137581D1*
X960662Y1142389D1*
Y1151951D1*
X963038Y1156704D1*
X965415Y1159080D1*
X970223Y1161512D1*
X974976D1*
X979785Y1159080D1*
X986915Y1154327D1*
X1010846Y1130395D1*
Y1163889D1*
X747545Y846206D2*
X742791Y843830D1*
X737983Y839021D1*
X735606Y834268D1*
Y824706D1*
X737983Y819898D1*
X742791Y815145D1*
X747545Y812713D1*
X754730Y810336D1*
X766723D1*
X773853Y812713D1*
X778661Y815145D1*
X783415Y819898D1*
X785846Y824706D1*
Y834268D1*
X783415Y839021D1*
X778661Y843830D1*
X773853Y846206D1*
X735662Y866454D2*
Y892707D1*
X754785Y878392D1*
Y885577D1*
X757161Y890330D1*
X759538Y892707D1*
X766723Y895139D1*
X771476D1*
X778661Y892707D1*
X783470Y887954D1*
X785846Y880769D1*
Y873584D1*
X783470Y866454D1*
X781038Y864077D1*
X776285Y861645D1*
X803288Y1120640D2*
Y1142140D1*
X800856Y1149325D1*
X798480Y1151757D1*
X793726Y1154133D1*
X788918D1*
X784165Y1151757D1*
X781733Y1149325D1*
X779356Y1142140D1*
Y1120640D1*
X829596D1*
X803288Y1137387D2*
X829596Y1154133D1*
X788973Y1169573D2*
X786541Y1174381D1*
X779412Y1181566D1*
X829596D1*
X1457894Y1149278D2*
Y1113408D1*
X1460271Y1106223D1*
X1465079Y1101469D1*
X1472264Y1099038D1*
X1477017D1*
X1484202Y1101469D1*
X1489011Y1106223D1*
X1491387Y1113408D1*
Y1149278D1*
X1506827Y1139661D2*
X1511635Y1142092D1*
X1518820Y1149222D1*
Y1099038D1*
X614067Y1511875D2*
Y1473629D1*
X611690Y1466444D1*
X609259Y1464067D1*
X604505Y1461635D1*
X599697D1*
X594944Y1464067D1*
X592567Y1466444D1*
X590135Y1473629D1*
Y1478382D1*
X629506Y1502258D2*
X634315Y1504690D1*
X641500Y1511820D1*
Y1461635D1*
X1879646Y1449375D2*
Y1411129D1*
X1877269Y1403944D1*
X1874837Y1401567D1*
X1870084Y1399135D1*
X1865276D1*
X1860523Y1401567D1*
X1858146Y1403944D1*
X1855714Y1411129D1*
Y1415882D1*
X1897517Y1437382D2*
Y1439758D1*
X1899894Y1444567D1*
X1902270Y1446943D1*
X1907079Y1449320D1*
X1916640D1*
X1921393Y1446943D1*
X1923770Y1444567D1*
X1926202Y1439758D1*
Y1435005D1*
X1923770Y1430197D1*
X1919017Y1423067D1*
X1895085Y1399135D1*
X1928578D1*
M02*
